<?xml version="1.0" encoding="UTF-8" standalone="no"?>
<!DOCTYPE score-partwise PUBLIC
    "-//Recordare//DTD MusicXML 3.1 Partwise//EN"
    "http://www.musicxml.org/dtds/partwise.dtd">
<score-partwise version="3.1">
  <work>
    <work-title>Classic Piano Miniature (8 measures)</work-title>
  </work>
  <identification>
    <creator type="composer">AI Composer</creator>
  </identification>
  <part-list>
    <score-part id="P1">
      <part-name>Piano</part-name>
      <score-instrument id="P1-I1">
        <instrument-name>Piano</instrument-name>
      </score-instrument>
      <midi-instrument id="P1-I1">
        <midi-channel>1</midi-channel>
        <midi-program>1</midi-program>
      </midi-instrument>
    </score-part>
  </part-list>

  <part id="P1">
    <!-- Measure 1 -->
    <measure number="1">
      <attributes>
        <divisions>8</divisions>
        <key>
          <fifths>0</fifths>
        </key>
        <time>
          <beats>4</beats>
          <beat-type>4</beat-type>
        </time>
        <staves>2</staves>
        <clef number="1">
          <sign>G</sign>
          <line>2</line>
        </clef>
        <clef number="2">
          <sign>F</sign>
          <line>4</line>
        </clef>
      </attributes>
      <direction placement="above">
        <direction-type>
          <metronome>
            <beat-unit>quarter</beat-unit>
            <per-minute>90</per-minute>
          </metronome>
        </direction-type>
        <sound tempo="90"/>
      </direction>
      <direction placement="below">
        <direction-type>
          <dynamics>
            <mf/>
          </dynamics>
        </direction-type>
      </direction>
      <!-- Right hand (staff 1) -->
      <note>
        <pitch>
          <step>E</step>
          <octave>5</octave>
        </pitch>
        <duration>8</duration>
        <type>quarter</type>
        <voice>1</voice>
        <staff>1</staff>
        <notations>
          <slur type="start" number="1"/>
        </notations>
      </note>
      <note>
        <pitch>
          <step>D</step>
          <octave>5</octave>
        </pitch>
        <duration>8</duration>
        <type>quarter</type>
        <voice>1</voice>
        <staff>1</staff>
      </note>
      <note>
        <pitch>
          <step>C</step>
          <octave>5</octave>
        </pitch>
        <duration>8</duration>
        <type>quarter</type>
        <voice>1</voice>
        <staff>1</staff>
      </note>
      <note>
        <pitch>
          <step>E</step>
          <octave>5</octave>
        </pitch>
        <duration>8</duration>
        <type>quarter</type>
        <voice>1</voice>
        <staff>1</staff>
      </note>
      <backup>
        <duration>32</duration>
      </backup>
      <!-- Left hand (staff 2) -->
      <note>
        <pitch>
          <step>C</step>
          <octave>3</octave>
        </pitch>
        <duration>8</duration>
        <type>quarter</type>
        <voice>2</voice>
        <staff>2</staff>
      </note>
      <note>
        <pitch>
          <step>G</step>
          <octave>2</octave>
        </pitch>
        <duration>8</duration>
        <type>quarter</type>
        <voice>2</voice>
        <staff>2</staff>
      </note>
      <note>
        <pitch>
          <step>E</step>
          <octave>3</octave>
        </pitch>
        <duration>8</duration>
        <type>quarter</type>
        <voice>2</voice>
        <staff>2</staff>
      </note>
      <note>
        <pitch>
          <step>G</step>
          <octave>2</octave>
        </pitch>
        <duration>8</duration>
        <type>quarter</type>
        <voice>2</voice>
        <staff>2</staff>
      </note>
    </measure>

    <!-- Measure 2 -->
    <measure number="2">
      <!-- Right hand -->
      <note>
        <pitch>
          <step>G</step>
          <octave>5</octave>
        </pitch>
        <duration>16</duration>
        <type>half</type>
        <voice>1</voice>
        <staff>1</staff>
      </note>
      <note>
        <pitch>
          <step>E</step>
          <octave>5</octave>
        </pitch>
        <duration>8</duration>
        <type>quarter</type>
        <voice>1</voice>
        <staff>1</staff>
      </note>
      <note>
        <pitch>
          <step>D</step>
          <octave>5</octave>
        </pitch>
        <duration>8</duration>
        <type>quarter</type>
        <voice>1</voice>
        <staff>1</staff>
        <notations>
          <slur type="stop" number="1"/>
        </notations>
      </note>
      <backup>
        <duration>32</duration>
      </backup>
      <!-- Left hand -->
      <note>
        <pitch>
          <step>C</step>
          <octave>3</octave>
        </pitch>
        <duration>16</duration>
        <type>half</type>
        <voice>2</voice>
        <staff>2</staff>
      </note>
      <note>
        <pitch>
          <step>G</step>
          <octave>2</octave>
        </pitch>
        <duration>8</duration>
        <type>quarter</type>
        <voice>2</voice>
        <staff>2</staff>
      </note>
      <note>
        <pitch>
          <step>C</step>
          <octave>3</octave>
        </pitch>
        <duration>8</duration>
        <type>quarter</type>
        <voice>2</voice>
        <staff>2</staff>
      </note>
    </measure>

    <!-- Measure 3 -->
    <measure number="3">
      <!-- Right hand -->
      <note>
        <pitch>
          <step>F</step>
          <octave>5</octave>
        </pitch>
        <duration>8</duration>
        <type>quarter</type>
        <voice>1</voice>
        <staff>1</staff>
        <notations>
          <slur type="start" number="2"/>
        </notations>
      </note>
      <note>
        <pitch>
          <step>E</step>
          <octave>5</octave>
        </pitch>
        <duration>8</duration>
        <type>quarter</type>
        <voice>1</voice>
        <staff>1</staff>
      </note>
      <note>
        <pitch>
          <step>D</step>
          <octave>5</octave>
        </pitch>
        <duration>8</duration>
        <type>quarter</type>
        <voice>1</voice>
        <staff>1</staff>
      </note>
      <note>
        <pitch>
          <step>C</step>
          <octave>5</octave>
        </pitch>
        <duration>8</duration>
        <type>quarter</type>
        <voice>1</voice>
        <staff>1</staff>
      </note>
      <backup>
        <duration>32</duration>
      </backup>
      <!-- Left hand -->
      <note>
        <pitch>
          <step>F</step>
          <octave>3</octave>
        </pitch>
        <duration>8</duration>
        <type>quarter</type>
        <voice>2</voice>
        <staff>2</staff>
      </note>
      <note>
        <pitch>
          <step>C</step>
          <octave>3</octave>
        </pitch>
        <duration>8</duration>
        <type>quarter</type>
        <voice>2</voice>
        <staff>2</staff>
      </note>
      <note>
        <pitch>
          <step>A</step>
          <octave>2</octave>
        </pitch>
        <duration>8</duration>
        <type>quarter</type>
        <voice>2</voice>
        <staff>2</staff>
      </note>
      <note>
        <pitch>
          <step>C</step>
          <octave>3</octave>
        </pitch>
        <duration>8</duration>
        <type>quarter</type>
        <voice>2</voice>
        <staff>2</staff>
      </note>
    </measure>

    <!-- Measure 4 -->
    <measure number="4">
      <!-- Right hand -->
      <note>
        <pitch>
          <step>E</step>
          <octave>5</octave>
        </pitch>
        <duration>16</duration>
        <type>half</type>
        <voice>1</voice>
        <staff>1</staff>
      </note>
      <note>
        <pitch>
          <step>D</step>
          <octave>5</octave>
        </pitch>
        <duration>8</duration>
        <type>quarter</type>
        <voice>1</voice>
        <staff>1</staff>
      </note>
      <note>
        <pitch>
          <step>C</step>
          <octave>5</octave>
        </pitch>
        <duration>8</duration>
        <type>quarter</type>
        <voice>1</voice>
        <staff>1</staff>
        <notations>
          <slur type="stop" number="2"/>
        </notations>
      </note>
      <backup>
        <duration>32</duration>
      </backup>
      <!-- Left hand -->
      <note>
        <pitch>
          <step>F</step>
          <octave>3</octave>
        </pitch>
        <duration>16</duration>
        <type>half</type>
        <voice>2</voice>
        <staff>2</staff>
      </note>
      <note>
        <pitch>
          <step>C</step>
          <octave>3</octave>
        </pitch>
        <duration>8</duration>
        <type>quarter</type>
        <voice>2</voice>
        <staff>2</staff>
      </note>
      <note>
        <pitch>
          <step>F</step>
          <octave>3</octave>
        </pitch>
        <duration>8</duration>
        <type>quarter</type>
        <voice>2</voice>
        <staff>2</staff>
      </note>
    </measure>

    <!-- Measure 5 -->
    <measure number="5">
      <!-- Right hand -->
      <note>
        <pitch>
          <step>G</step>
          <octave>5</octave>
        </pitch>
        <duration>8</duration>
        <type>quarter</type>
        <voice>1</voice>
        <staff>1</staff>
        <notations>
          <slur type="start" number="3"/>
        </notations>
      </note>
      <note>
        <pitch>
          <step>A</step>
          <octave>5</octave>
        </pitch>
        <duration>8</duration>
        <type>quarter</type>
        <voice>1</voice>
        <staff>1</staff>
      </note>
      <note>
        <pitch>
          <step>B</step>
          <octave>5</octave>
        </pitch>
        <duration>8</duration>
        <type>quarter</type>
        <voice>1</voice>
        <staff>1</staff>
      </note>
      <note>
        <pitch>
          <step>C</step>
          <octave>6</octave>
        </pitch>
        <duration>8</duration>
        <type>quarter</type>
        <voice>1</voice>
        <staff>1</staff>
      </note>
      <backup>
        <duration>32</duration>
      </backup>
      <!-- Left hand -->
      <note>
        <pitch>
          <step>G</step>
          <octave>3</octave>
        </pitch>
        <duration>8</duration>
        <type>quarter</type>
        <voice>2</voice>
        <staff>2</staff>
      </note>
      <note>
        <pitch>
          <step>D</step>
          <octave>3</octave>
        </pitch>
        <duration>8</duration>
        <type>quarter</type>
        <voice>2</voice>
        <staff>2</staff>
      </note>
      <note>
        <pitch>
          <step>B</step>
          <octave>2</octave>
        </pitch>
        <duration>8</duration>
        <type>quarter</type>
        <voice>2</voice>
        <staff>2</staff>
      </note>
      <note>
        <pitch>
          <step>D</step>
          <octave>3</octave>
        </pitch>
        <duration>8</duration>
        <type>quarter</type>
        <voice>2</voice>
        <staff>2</staff>
      </note>
    </measure>

    <!-- Measure 6 -->
    <measure number="6">
      <!-- Right hand -->
      <note>
        <pitch>
          <step>C</step>
          <octave>6</octave>
        </pitch>
        <duration>16</duration>
        <type>half</type>
        <voice>1</voice>
        <staff>1</staff>
      </note>
      <note>
        <pitch>
          <step>B</step>
          <octave>5</octave>
        </pitch>
        <duration>8</duration>
        <type>quarter</type>
        <voice>1</voice>
        <staff>1</staff>
      </note>
      <note>
        <pitch>
          <step>A</step>
          <octave>5</octave>
        </pitch>
        <duration>8</duration>
        <type>quarter</type>
        <voice>1</voice>
        <staff>1</staff>
        <notations>
          <slur type="stop" number="3"/>
        </notations>
      </note>
      <backup>
        <duration>32</duration>
      </backup>
      <!-- Left hand -->
      <note>
        <pitch>
          <step>G</step>
          <octave>3</octave>
        </pitch>
        <duration>16</duration>
        <type>half</type>
        <voice>2</voice>
        <staff>2</staff>
      </note>
      <note>
        <pitch>
          <step>D</step>
          <octave>3</octave>
        </pitch>
        <duration>8</duration>
        <type>quarter</type>
        <voice>2</voice>
        <staff>2</staff>
      </note>
      <note>
        <pitch>
          <step>G</step>
          <octave>3</octave>
        </pitch>
        <duration>8</duration>
        <type>quarter</type>
        <voice>2</voice>
        <staff>2</staff>
      </note>
    </measure>

    <!-- Measure 7 -->
    <measure number="7">
      <!-- Right hand -->
      <note>
        <pitch>
          <step>E</step>
          <octave>5</octave>
        </pitch>
        <duration>8</duration>
        <type>quarter</type>
        <voice>1</voice>
        <staff>1</staff>
        <notations>
          <slur type="start" number="4"/>
        </notations>
      </note>
      <note>
        <pitch>
          <step>D</step>
          <octave>5</octave>
        </pitch>
        <duration>8</duration>
        <type>quarter</type>
        <voice>1</voice>
        <staff>1</staff>
      </note>
      <note>
        <pitch>
          <step>C</step>
          <octave>5</octave>
        </pitch>
        <duration>8</duration>
        <type>quarter</type>
        <voice>1</voice>
        <staff>1</staff>
      </note>
      <note>
        <pitch>
          <step>B</step>
          <octave>4</octave>
        </pitch>
        <duration>8</duration>
        <type>quarter</type>
        <voice>1</voice>
        <staff>1</staff>
      </note>
      <backup>
        <duration>32</duration>
      </backup>
      <!-- Left hand -->
      <note>
        <pitch>
          <step>E</step>
          <octave>3</octave>
        </pitch>
        <duration>8</duration>
        <type>quarter</type>
        <voice>2</voice>
        <staff>2</staff>
      </note>
      <note>
        <pitch>
          <step>B</step>
          <octave>2</octave>
        </pitch>
        <duration>8</duration>
        <type>quarter</type>
        <voice>2</voice>
        <staff>2</staff>
      </note>
      <note>
        <pitch>
          <step>G</step>
          <octave>2</octave>
        </pitch>
        <duration>8</duration>
        <type>quarter</type>
        <voice>2</voice>
        <staff>2</staff>
      </note>
      <note>
        <pitch>
          <step>B</step>
          <octave>2</octave>
        </pitch>
        <duration>8</duration>
        <type>quarter</type>
        <voice>2</voice>
        <staff>2</staff>
      </note>
    </measure>

    <!-- Measure 8 (final chord) -->
    <measure number="8">
      <direction placement="below">
        <direction-type>
          <dynamics>
            <f/>
          </dynamics>
        </direction-type>
      </direction>
      <!-- Right hand chord (whole) -->
      <note>
        <pitch>
          <step>C</step>
          <octave>5</octave>
        </pitch>
        <duration>32</duration>
        <type>whole</type>
        <voice>1</voice>
        <staff>1</staff>
        <notations>
          <fermata/>
        </notations>
      </note>
      <note>
        <chord/>
        <pitch>
          <step>E</step>
          <octave>5</octave>
        </pitch>
        <duration>32</duration>
        <type>whole</type>
        <voice>1</voice>
        <staff>1</staff>
      </note>
      <note>
        <chord/>
        <pitch>
          <step>G</step>
          <octave>5</octave>
        </pitch>
        <duration>32</duration>
        <type>whole</type>
        <voice>1</voice>
        <staff>1</staff>
      </note>
      <backup>
        <duration>32</duration>
      </backup>
      <!-- Left hand bass (whole) -->
      <note>
        <pitch>
          <step>C</step>
          <octave>3</octave>
        </pitch>
        <duration>32</duration>
        <type>whole</type>
        <voice>2</voice>
        <staff>2</staff>
        <notations>
          <fermata/>
        </notations>
      </note>
    </measure>

  </part>
</score-partwise>
